<?xml version="1.0" encoding="utf-8"?>
<!-- Generator: Adobe Illustrator 25.2.0, SVG Export Plug-In . SVG Version: 6.00 Build 0)  -->
<svg version="1.1" id="Express" xmlns="http://www.w3.org/2000/svg" xmlns:xlink="http://www.w3.org/1999/xlink" x="0px" y="0px"
	 viewBox="0 0 128 128" style="enable-background:new 0 0 128 128;" xml:space="preserve">
<style type="text/css">
	.st0{fill:#FFFFFF;stroke:#231F20;stroke-miterlimit:10;}
	.st1{fill:#FFFFFF;}
</style>
<g id="original">
	<path class="st0" d="M126.7,98.4c-4.6,1.2-7.4,0.1-9.9-3.8c-5.7-8.5-11.9-16.6-18-24.9c-0.8-1.1-1.6-2.1-2.6-3.4
		C89,76,81.8,85.2,75.1,94.8c-2.4,3.4-4.9,4.9-9.4,3.7l26.9-36.1l-25-32.7c4.3-0.8,7.3-0.4,9.9,3.5c5.8,8.5,12.3,16.6,18.7,25.2
		c6.5-8.5,12.8-16.7,18.8-25.1c2.4-3.4,5-4.7,9.3-3.5c-3.3,4.3-6.5,8.6-9.7,12.9c-4.4,5.7-8.6,11.5-13.2,17.1
		c-1.6,2-1.3,3.3,0.1,5.2C109.9,76,118.2,87.1,126.7,98.4z"/>
	<path class="st0" d="M1.3,61.7c0.7-3.6,1.2-7.3,2.2-10.8c6-21.4,30.6-30.3,47.5-17.1c9.9,7.8,12.4,18.8,11.9,31.1H7.1
		c-0.8,22.2,15.1,35.6,35.5,28.8c7.2-2.4,11.4-8,13.5-15c1.1-3.5,2.8-4.1,6.1-3.1c-1.7,8.8-5.5,16.1-13.5,20.7
		c-12,6.9-29.1,4.6-38.1-4.9C5.3,85.9,3,78.9,2,71.4c-0.1-1.2-0.5-2.4-0.7-3.6C1.3,65.8,1.3,63.8,1.3,61.7z M7.2,60.2h50.4
		c-0.3-16.1-10.3-27.5-24-27.6C18.6,32.6,7.8,43.7,7.2,60.2z"/>
</g>
<g>
	<g>
		<path class="st1" d="M46.1,113.9h-4.3v3.5h4.7l-0.1,0.6h-5.2v-8.4h5.1v0.6h-4.5v3.1h4.3V113.9z"/>
		<path class="st1" d="M47.9,112c1,1.5,1.4,2.1,1.7,2.5l0,0c0.3-0.4,0.9-1.3,1.8-2.5H52l-2.1,2.9L52,118h-0.7
			c-0.9-1.3-1.5-2.2-1.8-2.6l0,0c-0.2,0.3-0.8,1.2-1.8,2.6H47l2.1-3l-2-3H47.9z"/>
		<path class="st1" d="M53.7,117.1v3.3h-0.6v-6.9c0-0.5,0-1,0-1.5h0.6c0,0.2,0,0.6,0,1.1c0.4-0.7,1-1.2,2.1-1.2c1.4,0,2.4,1.2,2.4,3
			c0,2.2-1.2,3.3-2.6,3.3C54.5,118.1,54,117.7,53.7,117.1z M57.6,114.9c0-1.4-0.7-2.4-1.9-2.4c-1.5,0-2.1,0.9-2.1,2.5s0.5,2.6,2,2.6
			C56.9,117.6,57.6,116.5,57.6,114.9z"/>
		<path class="st1" d="M59.7,113.6c0-1,0-1.4,0-1.6h0.6c0,0.2,0,0.6,0,1.3c0.3-0.9,1.1-1.4,2.1-1.5v0.6c-1.2,0.1-2.1,0.9-2.1,2.4
			v3.1h-0.6V113.6z"/>
		<path class="st1" d="M63.7,115.1c0,1.5,0.8,2.5,1.9,2.5s1.5-0.6,1.7-1.1H68c-0.3,0.8-0.9,1.7-2.4,1.7c-1.8,0-2.5-1.6-2.5-3.1
			c0-1.7,0.9-3.2,2.6-3.2c1.8,0,2.4,1.6,2.4,2.7c0,0.2,0,0.3,0,0.5H63.7z M67.5,114.5c0-1.2-0.7-2.1-1.8-2.1c-1.2,0-1.8,0.9-1.9,2.1
			H67.5z"/>
		<path class="st1" d="M69.6,116.3c0.2,0.8,0.8,1.2,1.7,1.2c1.1,0,1.5-0.5,1.5-1.2s-0.3-1-1.6-1.3c-1.5-0.4-1.9-0.8-1.9-1.6
			c0-0.8,0.6-1.6,2-1.6s2,0.8,2.1,1.7h-0.6c-0.1-0.5-0.5-1.1-1.5-1.1s-1.3,0.5-1.3,1c0,0.6,0.3,0.8,1.5,1.1c1.7,0.4,2.1,1,2.1,1.9
			c0,1.1-0.9,1.8-2.1,1.8c-1.4,0-2.1-0.7-2.3-1.8L69.6,116.3L69.6,116.3z"/>
		<path class="st1" d="M74.9,116.3c0.2,0.8,0.8,1.2,1.7,1.2c1.1,0,1.5-0.5,1.5-1.2s-0.3-1-1.6-1.3c-1.5-0.4-1.9-0.8-1.9-1.6
			c0-0.8,0.6-1.6,2-1.6s2,0.8,2.1,1.7h-0.6c-0.1-0.5-0.5-1.1-1.5-1.1s-1.3,0.5-1.3,1c0,0.6,0.3,0.8,1.5,1.1c1.7,0.4,2.1,1,2.1,1.9
			c0,1.1-0.9,1.8-2.1,1.8c-1.4,0-2.1-0.7-2.3-1.8L74.9,116.3L74.9,116.3z"/>
		<path class="st1" d="M80,118v-1.5h0.6v1.5H80z"/>
		<path class="st1" d="M82.9,112v6.4c0,1.6-0.4,2.1-1.5,2.1h-0.3v-0.6c0.1,0,0.2,0,0.3,0c0.9,0,0.9-0.5,0.9-1.5V112H82.9z
			 M82.3,110.3v-1.2h0.6v1.2H82.3z"/>
		<path class="st1" d="M84.9,116.3c0.2,0.8,0.8,1.2,1.7,1.2c1.1,0,1.5-0.5,1.5-1.2s-0.3-1-1.6-1.3c-1.5-0.4-1.9-0.8-1.9-1.6
			c0-0.8,0.6-1.6,2-1.6s2,0.8,2.1,1.7H88c-0.1-0.5-0.5-1.1-1.5-1.1s-1.3,0.5-1.3,1c0,0.6,0.3,0.8,1.5,1.1c1.7,0.4,2.1,1,2.1,1.9
			c0,1.1-0.9,1.8-2.1,1.8c-1.4,0-2.1-0.7-2.3-1.8L84.9,116.3L84.9,116.3z"/>
	</g>
</g>
</svg>
