<?xml version="1.0" encoding="utf-8"?>
<!-- Generator: Adobe Illustrator 25.2.0, SVG Export Plug-In . SVG Version: 6.00 Build 0)  -->
<svg version="1.1" id="Layer_1" xmlns="http://www.w3.org/2000/svg" xmlns:xlink="http://www.w3.org/1999/xlink" x="0px" y="0px"
	 viewBox="0 0 128 128" style="enable-background:new 0 0 128 128;" xml:space="preserve">
<style type="text/css">
	.st0{fill:#F9F9F9;stroke:#231F20;stroke-miterlimit:10;}
	.st1{fill:url(#SVGID_1_);}
	.st2{fill:url(#SVGID_2_);}
	.st3{opacity:0.444;fill:url(#SVGID_3_);enable-background:new    ;}
</style>
<path class="st0" d="M52.5,61.1c0-4.1-1.2-6.2-3.5-6.3c-0.9,0-1.8,0.1-2.7,0.4c-0.7,0.3-1.2,0.5-1.4,0.8v9.7c1.5,0.9,2.8,1.4,4,1.3
	C51.2,66.9,52.5,64.9,52.5,61.1z M55.3,61.3c0,2.1-0.5,3.8-1.5,5.2c-1.1,1.5-2.6,2.3-4.5,2.4c-1.5,0-2.9-0.4-4.5-1.4v8.8l-2.5-0.9
	V55.8c0.4-0.5,0.9-0.9,1.6-1.3c1.5-0.9,3.3-1.3,5.4-1.3l0,0c1.9,0,3.4,0.8,4.5,2.4C54.8,57.1,55.3,59,55.3,61.3z"/>
<path class="st0" d="M70.5,67.1c0,2.8-0.3,4.7-0.8,5.8c-0.6,1.1-1.6,1.9-3.2,2.6c-1.3,0.5-2.6,0.8-4.1,0.8L62,74.7
	c1.5-0.2,2.6-0.4,3.2-0.6c1.2-0.4,2-1,2.5-1.9c0.4-0.7,0.5-2,0.5-3.9v-0.6c-1.7,0.8-3.5,1.2-5.4,1.2c-1.2,0-2.3-0.4-3.2-1.2
	c-1-0.8-1.6-1.9-1.6-3.2V54l2.5-0.9v10.4c0,1.1,0.4,2,1.1,2.6c0.7,0.6,1.7,0.9,2.8,0.9c1.1,0,2.4-0.5,3.7-1.3V53.6h2.5
	C70.5,53.6,70.5,67.1,70.5,67.1z"/>
<path class="st0" d="M80.3,68.7c-0.3,0-0.6,0-0.8,0c-1.4,0-2.5-0.3-3.3-1c-0.8-0.7-1.2-1.6-1.2-2.8v-9.8h-1.7v-1.6H75v-4.2l2.5-0.9
	v5h2.8v1.6h-2.8v9.7c0,0.9,0.2,1.6,0.8,2c0.4,0.3,1.1,0.5,2,0.5L80.3,68.7L80.3,68.7z"/>
<path class="st0" d="M95.3,68.5h-2.5v-9.6c0-1-0.2-1.8-0.7-2.5c-0.5-0.8-1.3-1.2-2.2-1.2c-1.1,0-2.6,0.6-4.3,1.8v11.5h-2.5v-23
	l2.5-0.8v10.5c1.6-1.2,3.3-1.7,5.2-1.7c1.3,0,2.4,0.4,3.2,1.3c0.8,0.9,1.2,2,1.2,3.3C95.3,58.1,95.3,68.5,95.3,68.5z"/>
<path class="st0" d="M108.6,60.7c0-1.6-0.3-2.9-0.9-3.9c-0.7-1.2-1.8-1.9-3.3-2c-2.7,0.2-4.1,2.1-4.1,5.9c0,1.7,0.3,3.2,0.9,4.3
	c0.7,1.5,1.8,2.2,3.3,2.2C107.2,67.2,108.6,65.1,108.6,60.7z M111.3,60.8c0,2.2-0.6,4.1-1.7,5.6c-1.2,1.7-3,2.5-5.2,2.5
	c-2.2,0-3.9-0.8-5.1-2.5c-1.1-1.5-1.7-3.3-1.7-5.6c0-2.1,0.6-3.9,1.8-5.3c1.3-1.5,2.9-2.3,5-2.3c2.1,0,3.8,0.8,5,2.3
	C110.7,56.9,111.3,58.7,111.3,60.8z"/>
<path class="st0" d="M125.6,68.5h-2.5V58.3c0-1.1-0.3-2-1-2.6c-0.7-0.6-1.6-0.9-2.7-0.9c-1.2,0-2.3,0.4-3.4,1.2v12.5h-2.5V55.7
	c1.4-1,2.8-1.7,4-2c1.1-0.3,2.1-0.4,3-0.4c0.6,0,1.1,0.1,1.7,0.2c1,0.2,1.8,0.6,2.4,1.3c0.7,0.7,1,1.5,1,2.5L125.6,68.5L125.6,68.5z
	"/>
<linearGradient id="SVGID_1_" gradientUnits="userSpaceOnUse" x1="392.4785" y1="575.1629" x2="422.9585" y2="601.3869" gradientTransform="matrix(0.563 0 0 0.568 -219.31 -280.167)">
	<stop  offset="0" style="stop-color:#5A9FD4"/>
	<stop  offset="1" style="stop-color:#306998"/>
</linearGradient>
<path class="st1" d="M17.8,45.6c-1.3,0-2.5,0.1-3.6,0.3c-3.2,0.6-3.7,1.7-3.7,3.9v2.9h7.5v1H7.6c-2.2,0-4.1,1.3-4.7,3.8
	c-0.7,2.9-0.7,4.6,0,7.6c0.5,2.2,1.8,3.8,4,3.8h2.6v-3.4c0-2.5,2.1-4.7,4.7-4.7h7.5c2.1,0,3.7-1.7,3.7-3.8v-7.1c0-2-1.7-3.6-3.7-3.9
	C20.4,45.7,19,45.6,17.8,45.6z M13.7,47.9c0.8,0,1.4,0.6,1.4,1.4c0,0.8-0.6,1.4-1.4,1.4c-0.8,0-1.4-0.6-1.4-1.4
	C12.3,48.6,12.9,47.9,13.7,47.9z"/>
<linearGradient id="SVGID_2_" gradientUnits="userSpaceOnUse" x1="434.7172" y1="617.2618" x2="423.8332" y2="601.8627" gradientTransform="matrix(0.563 0 0 0.568 -219.31 -280.167)">
	<stop  offset="0" style="stop-color:#FFD43B"/>
	<stop  offset="1" style="stop-color:#FFE873"/>
</linearGradient>
<path class="st2" d="M26.3,53.6V57c0,2.6-2.2,4.8-4.7,4.8h-7.5c-2.1,0-3.7,1.8-3.7,3.8v7.1c0,2,1.8,3.2,3.7,3.8
	c2.4,0.7,4.6,0.8,7.5,0c1.9-0.5,3.7-1.6,3.7-3.8v-2.9h-7.5v-1h11.2c2.2,0,3-1.5,3.7-3.8c0.8-2.3,0.7-4.6,0-7.6
	c-0.5-2.2-1.6-3.8-3.7-3.8L26.3,53.6L26.3,53.6z M22.1,71.7c0.8,0,1.4,0.6,1.4,1.4c0,0.8-0.6,1.4-1.4,1.4c-0.8,0-1.4-0.6-1.4-1.4
	C20.7,72.3,21.4,71.7,22.1,71.7z"/>
<radialGradient id="SVGID_3_" cx="-879.1761" cy="637.0623" r="8.119" gradientTransform="matrix(0 -0.24 1.055 0 -654.192 -129.824)" gradientUnits="userSpaceOnUse">
	<stop  offset="0" style="stop-color:#B8B8B8;stop-opacity:0.498"/>
	<stop  offset="1" style="stop-color:#7F7F7F;stop-opacity:0"/>
</radialGradient>
<path class="st3" d="M28.1,81.3c0,1.1-4.5,1.9-10,1.9c-5.5,0-10-0.9-10-1.9c0-1.1,4.5-1.9,10-1.9S28.1,80.2,28.1,81.3z"/>
</svg>
